<svg viewBox="0 0 16 20" fill="none" xmlns="http://www.w3.org/2000/svg">
    <path fill-rule="evenodd" clip-rule="evenodd" d="M6 2C5.44772 2 5 2.44772 5 3V12H3.00235C2.14335 12 1.68335 13.013 2.24935 13.658L7.04535 19.14V19.139C7.13921 19.2464 7.25497 19.3325 7.38484 19.3915C7.51472 19.4505 7.65571 19.481 7.79835 19.481C7.94099 19.481 8.08198 19.4505 8.21186 19.3915C8.34174 19.3325 8.45749 19.2464 8.55135 19.139L13.3474 13.659C13.474 13.5144 13.5564 13.3364 13.5845 13.1462C13.6126 12.956 13.5853 12.7617 13.5058 12.5867C13.4263 12.4116 13.2981 12.2632 13.1365 12.1591C12.9748 12.0551 12.7866 11.9998 12.5944 12H10.7V3C10.7 2.44772 10.2523 2 9.7 2H6Z" fill-opacity="0.86"/>
</svg>
