<svg viewBox="0 0 16 20" fill="none" xmlns="http://www.w3.org/2000/svg">
    <path fill-rule="evenodd" clip-rule="evenodd" d="M10 19C10.5523 19 11 18.5523 11 18L11 9H12.9976C13.8566 9 14.3166 7.987 13.7506 7.342L8.95465 1.86V1.861C8.86079 1.75359 8.74503 1.6675 8.61516 1.60852C8.48528 1.54954 8.34429 1.51902 8.20165 1.51902C8.05901 1.51902 7.91802 1.54954 7.78814 1.60852C7.65826 1.6675 7.54251 1.75359 7.44865 1.861L2.65265 7.341C2.52596 7.48559 2.44363 7.66364 2.41553 7.85382C2.38743 8.044 2.41474 8.23825 2.4942 8.41331C2.57366 8.58836 2.70189 8.73681 2.86354 8.84086C3.02519 8.94491 3.2134 9.00016 3.40565 9H5.3L5.3 18C5.3 18.5523 5.74772 19 6.3 19H10Z" fill-opacity="0.86"/>
</svg>
