<svg viewBox="0 0 36 36" fill="none" xmlns="http://www.w3.org/2000/svg">
    <path d="M19.5 31.5H7.5C6.70435 31.5 5.94129 31.1839 5.37868 30.6213C4.81607 30.0587 4.5 29.2956 4.5 28.5V15M4.5 15H31.5M4.5 15V9C4.5 8.20435 4.81607 7.44129 5.37868 6.87868C5.94129 6.31607 6.70435 6 7.5 6H10.5M31.5 15V19.5M31.5 15V9C31.5 8.20435 31.1839 7.44129 30.6213 6.87868C30.0587 6.31607 29.2956 6 28.5 6H27.75M22.5 6V3M22.5 6V9M22.5 6H15.75M10.5 3V9M22.488 27H26.988M26.988 27H31.5M26.988 27V22.5M26.988 27V31.5" stroke="currentColor" stroke-linecap="round" stroke-linejoin="round" fill="none" stroke-width="2"/>
    <rect x="27" y="22" width="1" height="10" rx="0.5" stroke="#438C68"/>
    <rect x="22" y="27" width="10" height="1" rx="0.5" stroke="#438C68"/>
</svg>
