<svg viewBox="0 0 22 22" fill="none" xmlns="http://www.w3.org/2000/svg">
    <path fill-rule="evenodd" clip-rule="evenodd" d="M2.02564 15.359H6.64093V19.9743C6.64093 20.5407 7.10013 20.9999 7.66657 20.9999H19.9743C20.5407 20.9999 20.9999 20.5407 20.9999 19.9743V7.66657C20.9999 7.10013 20.5407 6.64093 19.9743 6.64093H15.359V2.02564C15.359 1.4592 14.8998 1 14.3333 1H2.02564C1.4592 1 1 1.4592 1 2.02564V14.3333C1 14.8998 1.4592 15.359 2.02564 15.359ZM14.3333 1.51282H2.02564C1.74242 1.51282 1.51282 1.74242 1.51282 2.02564V14.3333C1.51282 14.6166 1.74242 14.8462 2.02564 14.8462H6.64093V7.66657C6.64093 7.10013 7.10013 6.64093 7.66657 6.64093H14.8462V2.02564C14.8462 1.74242 14.6166 1.51282 14.3333 1.51282ZM19.9743 7.15375H15.359V14.3333C15.359 14.8998 14.8998 15.359 14.3333 15.359H7.15375V19.9743C7.15375 20.2575 7.38335 20.4871 7.66657 20.4871H19.9743C20.2575 20.4871 20.4871 20.2575 20.4871 19.9743V7.66657C20.4871 7.38335 20.2575 7.15375 19.9743 7.15375ZM14.8462 7.16458V7.15375H7.66657C7.66265 7.15375 7.65874 7.1538 7.65484 7.15389H14.7539C14.7856 7.15389 14.8165 7.15759 14.8462 7.16458ZM7.16458 14.8462C7.15759 14.8165 7.15389 14.7856 7.15389 14.7539V7.65484C7.1538 7.65874 7.15375 7.66265 7.15375 7.66657V14.8462H7.16458Z" fill="currentColor" stroke="currentColor" stroke-width="0.5"/>
</svg>
