<svg viewBox="0 0 32 32" fill="none" xmlns="http://www.w3.org/2000/svg">
    <path d="M3.66699 2.6665C3.66699 2.40129 3.56164 2.14693 3.3741 1.9594C3.18656 1.77186 2.93221 1.6665 2.66699 1.6665C2.40178 1.6665 2.14742 1.77186 1.95989 1.9594C1.77235 2.14693 1.66699 2.40129 1.66699 2.6665V16.0758C1.66699 19.1545 1.66699 21.5665 1.92033 23.4492C2.17899 25.3745 2.72033 26.8945 3.91233 28.0878C5.10566 29.2812 6.62566 29.8212 8.55233 30.0798C10.4337 30.3332 12.8457 30.3332 15.9243 30.3332H29.3337C29.5989 30.3332 29.8532 30.2278 30.0408 30.0403C30.2283 29.8527 30.3337 29.5984 30.3337 29.3332C30.3337 29.068 30.2283 28.8136 30.0408 28.6261C29.8532 28.4385 29.5989 28.3332 29.3337 28.3332H16.0003C12.8297 28.3332 10.5523 28.3305 8.81899 28.0985C7.11366 27.8692 6.08566 27.4318 5.32566 26.6732C4.56699 25.9132 4.13099 24.8865 3.90166 23.1812C3.66966 21.4478 3.66699 19.1705 3.66699 15.9998V2.6665Z" />
    <path d="M26.1166 9.9546C26.2041 9.85248 26.27 9.73377 26.3105 9.60558C26.3511 9.47738 26.3653 9.34233 26.3524 9.2085C26.3396 9.07467 26.2999 8.94481 26.2357 8.82668C26.1715 8.70856 26.0841 8.60459 25.9788 8.52099C25.8735 8.4374 25.7524 8.3759 25.6228 8.34016C25.4932 8.30443 25.3577 8.2952 25.2245 8.31303C25.0912 8.33085 24.9629 8.37537 24.8472 8.44391C24.7316 8.51245 24.6309 8.60361 24.5513 8.71194L20.394 13.9466C20.0673 14.3586 19.8526 14.6266 19.6753 14.8213C19.502 15.0119 19.422 15.0653 19.3846 15.0853C19.246 15.1592 19.0919 15.1994 18.9348 15.2026C18.7778 15.2059 18.6222 15.1721 18.4806 15.1039C18.4433 15.0866 18.3606 15.0373 18.178 14.8546C17.994 14.6679 17.7673 14.4079 17.4233 14.0106L17.4006 13.9866C17.0846 13.6213 16.814 13.3093 16.574 13.0693C16.3287 12.807 16.04 12.5892 15.7206 12.4253C15.2956 12.2211 14.8284 12.12 14.3569 12.1302C13.8855 12.1404 13.4231 12.2616 13.0073 12.4839C12.6946 12.6612 12.4149 12.8913 12.1806 13.1639C11.954 13.4146 11.6966 13.7373 11.3953 14.1173L7.21795 19.3786C7.13051 19.4807 7.06455 19.5994 7.02403 19.7276C6.98351 19.8558 6.96926 19.9909 6.98213 20.1247C6.99499 20.2585 7.03472 20.3884 7.09892 20.5065C7.16312 20.6247 7.25048 20.7286 7.35578 20.8122C7.46108 20.8958 7.58215 20.9573 7.71176 20.993C7.84137 21.0288 7.97686 21.038 8.11012 21.0202C8.24338 21.0024 8.37168 20.9578 8.48734 20.8893C8.603 20.8208 8.70366 20.7296 8.78328 20.6213L12.942 15.3866C13.2686 14.9746 13.4833 14.7066 13.6593 14.5119C13.8326 14.3213 13.9126 14.2679 13.95 14.2479C14.0886 14.174 14.2427 14.1338 14.3997 14.1306C14.5568 14.1274 14.7124 14.1612 14.854 14.2293C14.8926 14.2466 14.9753 14.2959 15.1566 14.4786C15.342 14.6653 15.5673 14.9253 15.9126 15.3226L15.934 15.3466C16.2513 15.7119 16.5206 16.0239 16.7606 16.2639C17.0073 16.5133 17.2793 16.7466 17.614 16.9079C18.039 17.1121 18.5062 17.2132 18.9776 17.203C19.4491 17.1928 19.9115 17.0716 20.3273 16.8493C20.6397 16.6715 20.9193 16.4415 21.154 16.1693C21.3806 15.9186 21.638 15.5959 21.9406 15.2159L26.1166 9.9546Z" />
</svg>
