<svg viewBox="0 0 32 32" fill="none" xmlns="http://www.w3.org/2000/svg">
    <path fill-rule="evenodd" clip-rule="evenodd" d="M13.5 7C13.1022 7 12.7206 7.15804 12.4393 7.43934C12.158 7.72064 12 8.10218 12 8.5V11C12 11.5523 11.5523 12 11 12C10.4477 12 10 11.5523 10 11V8.5C10 7.57174 10.3687 6.6815 11.0251 6.02513C11.6815 5.36875 12.5717 5 13.5 5H26.5C27.4283 5 28.3185 5.36875 28.9749 6.02513C29.6313 6.6815 30 7.57174 30 8.5V23.5C30 24.4283 29.6313 25.3185 28.9749 25.9749C28.3185 26.6313 27.4283 27 26.5 27H13.5C12.5717 27 11.6815 26.6313 11.0251 25.9749C10.3687 25.3185 10 24.4283 10 23.5V21C10 20.4477 10.4477 20 11 20C11.5523 20 12 20.4477 12 21V23.5C12 23.8978 12.158 24.2794 12.4393 24.5607C12.7206 24.842 13.1022 25 13.5 25H26.5C26.8978 25 27.2794 24.842 27.5607 24.5607C27.842 24.2794 28 23.8978 28 23.5V8.5C28 8.10218 27.842 7.72064 27.5607 7.43934C27.2794 7.15804 26.8978 7 26.5 7H13.5Z" />
    <path fill-rule="evenodd" clip-rule="evenodd" d="M16.2929 10.2929C16.6834 9.90237 17.3166 9.90237 17.7071 10.2929L22.7071 15.2929C23.0976 15.6834 23.0976 16.3166 22.7071 16.7071L17.7071 21.7071C17.3166 22.0976 16.6834 22.0976 16.2929 21.7071C15.9024 21.3166 15.9024 20.6834 16.2929 20.2929L20.5858 16L16.2929 11.7071C15.9024 11.3166 15.9024 10.6834 16.2929 10.2929Z" />
    <path fill-rule="evenodd" clip-rule="evenodd" d="M2 16C2 15.4477 2.44772 15 3 15H21C21.5523 15 22 15.4477 22 16C22 16.5523 21.5523 17 21 17H3C2.44772 17 2 16.5523 2 16Z" />
</svg>
