<svg viewBox="0 0 40 40" fill="none" xmlns="http://www.w3.org/2000/svg">
    <path d="M33.75 20C33.75 27.5939 27.5939 33.75 20 33.75C12.4061 33.75 6.25 27.5939 6.25 20C6.25 12.4061 12.4061 6.25 20 6.25C27.5939 6.25 33.75 12.4061 33.75 20Z" stroke="#FF6666" stroke-width="2.5" fill="none"/>
    <path d="M18.8 12.75C18.8 12.0596 19.3597 11.5 20.05 11.5C20.7404 11.5 21.3 12.0596 21.3 12.75V21.25C21.3 21.9404 20.7404 22.5 20.05 22.5C19.3597 22.5 18.8 21.9404 18.8 21.25V12.75Z" fill="#FF6666"/>
    <path d="M21.8 26.75C21.8 27.7165 21.0165 28.5 20.05 28.5C19.0836 28.5 18.3 27.7165 18.3 26.75C18.3 25.7835 19.0836 25 20.05 25C21.0165 25 21.8 25.7835 21.8 26.75Z" fill="#FF6666"/>
</svg>
