<svg fill="none" xmlns="http://www.w3.org/2000/svg">
    <path fill-rule="evenodd" clip-rule="evenodd" d="M3.02513 6.02513C3.6815 5.36875 4.57174 5 5.5 5H17.5C18.4283 5 19.3185 5.36875 19.9749 6.02513C20.6313 6.6815 21 7.57174 21 8.5V11C21 11.5523 20.5523 12 20 12C19.4477 12 19 11.5523 19 11V8.5C19 8.10218 18.842 7.72064 18.5607 7.43934C18.2794 7.15804 17.8978 7 17.5 7H5.5C5.10218 7 4.72064 7.15804 4.43934 7.43934C4.15804 7.72064 4 8.10218 4 8.5V23.5C4 23.8978 4.15804 24.2794 4.43934 24.5607C4.72064 24.842 5.10218 25 5.5 25H17.5C17.8978 25 18.2794 24.842 18.5607 24.5607C18.842 24.2794 19 23.8978 19 23.5V21C19 20.4477 19.4477 20 20 20C20.5523 20 21 20.4477 21 21V23.5C21 24.4283 20.6313 25.3185 19.9749 25.9749C19.3185 26.6313 18.4283 27 17.5 27H5.5C4.57174 27 3.6815 26.6313 3.02513 25.9749C2.36875 25.3185 2 24.4283 2 23.5V8.5C2 7.57174 2.36875 6.6815 3.02513 6.02513Z"/>
    <path fill-rule="evenodd" clip-rule="evenodd" d="M23.2929 10.2929C23.6834 9.90237 24.3166 9.90237 24.7071 10.2929L29.7071 15.2929C30.0976 15.6834 30.0976 16.3166 29.7071 16.7071L24.7071 21.7071C24.3166 22.0976 23.6834 22.0976 23.2929 21.7071C22.9024 21.3166 22.9024 20.6834 23.2929 20.2929L27.5858 16L23.2929 11.7071C22.9024 11.3166 22.9024 10.6834 23.2929 10.2929Z"/>
    <path fill-rule="evenodd" clip-rule="evenodd" d="M10.9375 16C10.9375 15.4477 11.3852 15 11.9375 15H29C29.5523 15 30 15.4477 30 16C30 16.5523 29.5523 17 29 17H11.9375C11.3852 17 10.9375 16.5523 10.9375 16Z"/>
</svg>
