<svg viewBox="0 0 24 24" fill="none" xmlns="http://www.w3.org/2000/svg">
    <mask id="mask0_1697_12050" style="mask-type:luminance" maskUnits="userSpaceOnUse" x="0" y="0" width="24" height="24">
        <path d="M24 0H0V24H24V0Z" fill="white"/>
    </mask>
    <g mask="url(#mask0_1697_12050)">
        <path d="M23.52 12.2726C23.52 11.4217 23.4437 10.6035 23.3018 9.81799H12V14.4598H18.4582C18.18 15.9598 17.3346 17.2308 16.0637 18.0817V21.0926H19.9418C22.2109 19.0035 23.52 15.9271 23.52 12.2726Z" fill="#4285F4"/>
        <path d="M11.9986 23.9998C15.2386 23.9998 17.9549 22.9252 19.9403 21.0925L16.0621 18.0816C14.9877 18.8016 13.6131 19.227 11.9986 19.227C8.87306 19.227 6.22766 17.1161 5.28398 14.2798H1.2749V17.3889C3.2495 21.3107 7.30766 23.9998 11.9986 23.9998Z" fill="#34A853"/>
        <path d="M5.2854 14.2802C5.0454 13.5602 4.90908 12.7911 4.90908 12.0002C4.90908 11.2092 5.0454 10.4402 5.2854 9.72016V6.61108H1.27632C0.463679 8.23108 0 10.0638 0 12.0002C0 13.9365 0.463679 15.7692 1.27632 17.3892L5.2854 14.2802Z" fill="#FBBC04"/>
        <path d="M11.9986 4.77276C13.7603 4.77276 15.3421 5.37816 16.5858 6.56724L20.0277 3.1254C17.9495 1.18908 15.2331 0 11.9986 0C7.30766 0 3.2495 2.68908 1.2749 6.61092L5.28398 9.72C6.22766 6.88368 8.87306 4.77276 11.9986 4.77276Z" fill="#E94235"/>
    </g>
</svg>
