<svg viewBox="0 0 24 24" fill="none" xmlns="http://www.w3.org/2000/svg">
    <path fill-rule="evenodd" clip-rule="evenodd" d="M15 17.25C14.5858 17.25 14.25 17.5858 14.25 18C14.25 18.4142 14.5858 18.75 15 18.75C15.4142 18.75 15.75 18.4142 15.75 18C15.75 17.5858 15.4142 17.25 15 17.25ZM12.75 18C12.75 16.7574 13.7574 15.75 15 15.75C16.2426 15.75 17.25 16.7574 17.25 18C17.25 19.2426 16.2426 20.25 15 20.25C13.7574 20.25 12.75 19.2426 12.75 18Z" />
    <path fill-rule="evenodd" clip-rule="evenodd" d="M15 11.25C14.5858 11.25 14.25 11.5858 14.25 12C14.25 12.4142 14.5858 12.75 15 12.75C15.4142 12.75 15.75 12.4142 15.75 12C15.75 11.5858 15.4142 11.25 15 11.25ZM12.75 12C12.75 10.7574 13.7574 9.75 15 9.75C16.2426 9.75 17.25 10.7574 17.25 12C17.25 13.2426 16.2426 14.25 15 14.25C13.7574 14.25 12.75 13.2426 12.75 12Z" />
    <path fill-rule="evenodd" clip-rule="evenodd" d="M9 11.25C8.58579 11.25 8.25 11.5858 8.25 12C8.25 12.4142 8.58579 12.75 9 12.75C9.41421 12.75 9.75 12.4142 9.75 12C9.75 11.5858 9.41421 11.25 9 11.25ZM6.75 12C6.75 10.7574 7.75736 9.75 9 9.75C10.2426 9.75 11.25 10.7574 11.25 12C11.25 13.2426 10.2426 14.25 9 14.25C7.75736 14.25 6.75 13.2426 6.75 12Z" />
    <path fill-rule="evenodd" clip-rule="evenodd" d="M15 5.25C14.5858 5.25 14.25 5.58579 14.25 6C14.25 6.41421 14.5858 6.75 15 6.75C15.4142 6.75 15.75 6.41421 15.75 6C15.75 5.58579 15.4142 5.25 15 5.25ZM12.75 6C12.75 4.75736 13.7574 3.75 15 3.75C16.2426 3.75 17.25 4.75736 17.25 6C17.25 7.24264 16.2426 8.25 15 8.25C13.7574 8.25 12.75 7.24264 12.75 6Z" />
</svg>
