<svg width="90" height="80" viewBox="0 0 90 80" fill="none" xmlns="http://www.w3.org/2000/svg">
    <path d="M89.9985 2.82715L60.5366 10.6052V12.4582L89.9985 16.1455V2.82715Z" fill="#219653"/>
    <path fill-rule="evenodd" clip-rule="evenodd" d="M23.408 74.7597H31.1009L34.6515 21.1063H30.6725V16.1749H31.8899V16.9639H35.4405V7.29844H33.468V5.32589L44.5143 0L56.1523 5.32589V7.29844H54.1798V16.9639H57.5331V16.1749H58.9237V21.1063H54.9688L58.7166 74.7597H66.6068V79.4938H23.408V74.7597ZM46.8198 58.1169H54.0844V73.4533H46.8198V58.1169ZM38.7478 9.03244V15.7421H43.2209V9.03244C43.2209 9.03244 41.9346 8.07392 40.9843 8.07392C40.034 8.07392 38.7478 9.03244 38.7478 9.03244ZM46.8166 15.7421V9.03244C46.8166 9.03244 48.1029 8.07392 49.0531 8.07392C50.0034 8.07392 51.2897 9.03244 51.2897 9.03244V15.7421H46.8166Z" fill="#219653"/>
</svg>
