<!--    <svg viewBox="0 0 180 25" fill="none" xmlns="http://www.w3.org/2000/svg">-->
<svg width="226" height="32" viewBox="0 0 226 32" fill="none" xmlns="http://www.w3.org/2000/svg">
    <path d="M23.1602 32C22.7293 32 22.4061 31.6584 22.4061 31.2028L20.3594 9.11032L18.6358 24.7117C18.6358 25.1673 18.3127 25.395 17.8818 25.5089C17.4509 25.5089 17.1277 25.2811 17.02 24.8256L15.8351 19.3594H13.5729C13.2498 19.3594 12.9266 19.1317 12.8189 18.79L11.7417 15.2598L10.8799 18.6762C10.7722 19.0178 10.449 19.3594 10.1258 19.3594H0.861776C0.43089 19.3594 0 19.0178 0 18.4484C0 17.879 0.323168 17.5374 0.861776 17.5374H9.47951L10.8799 11.8434C10.9876 11.5018 11.3108 11.1601 11.6339 11.1601C11.9571 11.1601 12.2803 11.3879 12.388 11.7295L14.1115 17.4235H16.3737C16.6969 17.4235 17.1277 17.6512 17.1277 18.1068L17.4509 19.4733L19.4976 0.79715C19.4976 0.341634 19.9285 0 20.2517 0C20.6826 0 21.0057 0.341634 21.0057 0.79715L23.3756 25.7367L25.0991 18.1068C25.2069 17.7651 25.53 17.4235 25.8532 17.4235H225.138C225.569 17.4235 226 17.7651 226 18.3345C226 18.9039 225.677 19.2455 225.138 19.2455H83.592H26.6073L23.9142 31.2028C23.9142 31.6584 23.591 32 23.1602 32Z" fill="#219653"/>
    <path d="M35.6484 19.1066V3.84375H48.6501C49.8937 3.84375 50.6851 4.06987 51.2504 4.52211C51.8157 4.97434 52.0419 5.76574 52.0419 6.78327V10.175C52.0419 11.1925 51.8157 11.9839 51.2504 12.4362C50.6851 12.8884 49.7807 13.1145 48.6501 13.1145H39.1532V19.1066H35.6484ZM47.0673 6.55714H39.1532V10.6272H47.0673C47.6326 10.6272 48.0848 10.5142 48.3109 10.4011C48.537 10.175 48.6501 9.94888 48.6501 9.49665V7.91385C48.6501 7.46161 48.537 7.23549 48.3109 7.00938C48.0848 6.78326 47.7456 6.55714 47.0673 6.55714Z" fill="#D0D0D0"/>
    <path d="M60.6337 3.84375V16.2801H70.6959V3.84375H74.2007V15.4887C74.2007 16.8454 73.9746 17.8629 73.4093 18.3152C72.844 18.7674 71.9395 19.1066 70.4697 19.1066H60.8598C59.3901 19.1066 58.3725 18.8805 57.9203 18.3152C57.355 17.8629 57.1289 16.8454 57.1289 15.4887V3.84375H60.6337Z" fill="#D0D0D0"/>
    <path d="M82.1152 19.1066V3.84375H85.62V16.2801H97.0389V19.1066H82.1152Z" fill="#D0D0D0"/>
    <path d="M115.467 6.55714H105.518V9.83583H115.015C116.485 9.83583 117.502 10.0619 118.067 10.6272C118.633 11.1925 118.859 12.097 118.859 13.4537V15.6018C118.859 16.9585 118.633 17.976 118.067 18.4282C117.502 18.9935 116.485 19.2196 115.015 19.2196H105.631C104.161 19.2196 103.144 18.9935 102.579 18.4282C102.013 17.8629 101.787 16.9585 101.787 15.6018V15.1496L104.953 14.4712V16.2801H115.693V12.7753H106.196C104.727 12.7753 103.709 12.5492 103.144 11.9839C102.579 11.4186 102.352 10.5142 102.352 9.15748V7.46161C102.352 6.10492 102.579 5.08739 103.144 4.63516C103.709 4.06987 104.614 3.84375 106.083 3.84375H114.789C116.259 3.84375 117.163 4.06987 117.728 4.63516C118.294 5.08739 118.52 5.99185 118.52 7.23549V7.57467L115.354 8.36607V6.55714H115.467Z" fill="#D0D0D0"/>
    <path d="M126.401 7.46161C126.401 6.10492 126.514 5.08739 127.079 4.63516C127.644 4.18293 128.549 3.84375 130.018 3.84375H141.211C142.681 3.84375 143.698 4.06987 144.264 4.63516C144.829 5.20045 145.055 6.10492 145.055 7.46161V15.4887C145.055 16.8454 144.829 17.8629 144.264 18.3152C143.698 18.7674 142.794 19.1066 141.324 19.1066H130.131C128.662 19.1066 127.644 18.8805 127.192 18.3152C126.627 17.8629 126.4 16.8454 126.4 15.4887L126.401 7.46161ZM129.905 16.2801H141.55V6.6702H129.905V16.2801Z" fill="#D0D0D0"/>
    <path d="M152.63 19.1066V3.84375H165.632C166.875 3.84375 167.667 4.06987 168.232 4.52211C168.797 4.97434 169.023 5.76574 169.023 6.78327V10.175C169.023 11.1925 168.797 11.9839 168.232 12.4362C167.667 12.8884 166.762 13.1145 165.632 13.1145H156.022V19.1066H152.63ZM164.049 6.55714H156.022V10.6272H164.049C164.614 10.6272 165.066 10.5142 165.292 10.4011C165.518 10.175 165.632 9.94888 165.632 9.49665V7.91385C165.632 7.46161 165.518 7.23549 165.292 7.00938C165.066 6.78326 164.727 6.55714 164.049 6.55714Z" fill="#D0D0D0"/>
    <path d="M177.615 3.84375V16.2801H187.677V3.84375H191.182V15.4887C191.182 16.8454 190.956 17.8629 190.391 18.3152C189.825 18.7674 188.921 19.1066 187.451 19.1066H177.841C176.371 19.1066 175.354 18.8805 174.902 18.3152C174.336 17.8629 174.11 16.8454 174.11 15.4887V3.84375H177.615Z" fill="#D0D0D0"/>
    <path d="M212.324 6.55714H202.262V9.83583H211.759C213.229 9.83583 214.246 10.0619 214.812 10.6272C215.377 11.1925 215.603 12.097 215.603 13.4537V15.6018C215.603 16.9585 215.377 17.976 214.812 18.4282C214.246 18.9935 213.229 19.2196 211.759 19.2196H202.375C200.905 19.2196 199.888 18.9935 199.323 18.4282C198.757 17.8629 198.531 16.9585 198.531 15.6018V15.1496L201.697 14.4712V16.2801H212.437V12.7753H202.941C201.471 12.7753 200.453 12.5492 199.888 11.9839C199.323 11.4186 199.097 10.5142 199.097 9.15748V7.46161C199.097 6.10492 199.323 5.08739 199.888 4.63516C200.453 4.06987 201.358 3.84375 202.827 3.84375H211.533C213.003 3.84375 213.907 4.06987 214.472 4.63516C215.038 5.08739 215.264 5.99185 215.264 7.23549V7.57467L212.098 8.36607V6.55714H212.324Z" fill="#D0D0D0"/>
</svg>