<svg viewBox="0 0 32 32" fill="none" xmlns="http://www.w3.org/2000/svg">
    <path d="M29.0165 17.955C28.9202 17.8588 28.7995 17.7906 28.6673 17.7578C28.5352 17.725 28.3967 17.7288 28.2665 17.7687C26.3165 18.3581 24.2431 18.4074 22.2672 17.9112C20.2914 17.4151 18.4872 16.3922 17.0469 14.9515C15.6066 13.5109 14.5842 11.7064 14.0886 9.73043C13.593 7.75447 13.6428 5.68108 14.2328 3.7312C14.2722 3.60117 14.2755 3.46288 14.2424 3.3311C14.2094 3.19932 14.1411 3.079 14.045 2.98299C13.9488 2.88698 13.8284 2.81889 13.6966 2.78599C13.5648 2.75309 13.4265 2.75662 13.2965 2.7962C10.711 3.58944 8.4413 5.17763 6.81026 7.33495C4.96134 9.79007 4.06148 12.8304 4.27632 15.8964C4.49117 18.9623 5.80626 21.8474 7.97952 24.0207C10.1528 26.1939 13.0379 27.509 16.1039 27.7239C19.1698 27.9387 22.2101 27.0389 24.6653 25.19C26.8226 23.5589 28.4108 21.2893 29.204 18.7037C29.2436 18.5736 29.247 18.4352 29.214 18.3034C29.1809 18.1715 29.1127 18.051 29.0165 17.955ZM23.7665 23.9912C21.6001 25.616 18.9202 26.4049 16.219 26.2129C13.5178 26.0209 10.9764 24.861 9.06156 22.9462C7.14668 21.0313 5.98678 18.4899 5.79481 15.7887C5.60284 13.0875 6.39168 10.4076 8.01651 8.2412C9.17382 6.70673 10.7015 5.4909 12.4565 4.70745C12.087 6.73698 12.2152 8.82584 12.83 10.795C13.4449 12.7641 14.5281 14.5547 15.9868 16.0134C17.4455 17.4721 19.2361 18.5553 21.2052 19.1702C23.1744 19.785 25.2632 19.9132 27.2928 19.5437C26.5114 21.3011 25.2969 22.8313 23.7628 23.9912H23.7665Z" />
</svg>
