<svg viewBox="0 0 32 32" fill="none" xmlns="http://www.w3.org/2000/svg">
    <path fill-rule="evenodd" clip-rule="evenodd" d="M22 8C22 7.44772 22.4477 7 23 7H28C28.5523 7 29 7.44772 29 8C29 8.55228 28.5523 9 28 9H23C22.4477 9 22 8.55228 22 8Z" />
    <path fill-rule="evenodd" clip-rule="evenodd" d="M3 8C3 7.44772 3.44772 7 4 7H19C19.5523 7 20 7.44772 20 8C20 8.55228 19.5523 9 19 9H4C3.44772 9 3 8.55228 3 8Z" />
    <path fill-rule="evenodd" clip-rule="evenodd" d="M22 24C22 23.4477 22.4477 23 23 23H28C28.5523 23 29 23.4477 29 24C29 24.5523 28.5523 25 28 25H23C22.4477 25 22 24.5523 22 24Z" />
    <path fill-rule="evenodd" clip-rule="evenodd" d="M3 24C3 23.4477 3.44772 23 4 23H19C19.5523 23 20 23.4477 20 24C20 24.5523 19.5523 25 19 25H4C3.44772 25 3 24.5523 3 24Z" />
    <path fill-rule="evenodd" clip-rule="evenodd" d="M12 16C12 15.4477 12.4477 15 13 15H28C28.5523 15 29 15.4477 29 16C29 16.5523 28.5523 17 28 17H13C12.4477 17 12 16.5523 12 16Z" />
    <path fill-rule="evenodd" clip-rule="evenodd" d="M3 16C3 15.4477 3.44772 15 4 15H9C9.55228 15 10 15.4477 10 16C10 16.5523 9.55228 17 9 17H4C3.44772 17 3 16.5523 3 16Z" />
    <path fill-rule="evenodd" clip-rule="evenodd" d="M21 7C20.4477 7 20 7.44772 20 8C20 8.55228 20.4477 9 21 9C21.5523 9 22 8.55228 22 8C22 7.44772 21.5523 7 21 7ZM18 8C18 6.34315 19.3431 5 21 5C22.6569 5 24 6.34315 24 8C24 9.65685 22.6569 11 21 11C19.3431 11 18 9.65685 18 8Z" />
    <path fill-rule="evenodd" clip-rule="evenodd" d="M11 15C10.4477 15 10 15.4477 10 16C10 16.5523 10.4477 17 11 17C11.5523 17 12 16.5523 12 16C12 15.4477 11.5523 15 11 15ZM8 16C8 14.3431 9.34315 13 11 13C12.6569 13 14 14.3431 14 16C14 17.6569 12.6569 19 11 19C9.34315 19 8 17.6569 8 16Z" />
    <path fill-rule="evenodd" clip-rule="evenodd" d="M21 23C20.4477 23 20 23.4477 20 24C20 24.5523 20.4477 25 21 25C21.5523 25 22 24.5523 22 24C22 23.4477 21.5523 23 21 23ZM18 24C18 22.3431 19.3431 21 21 21C22.6569 21 24 22.3431 24 24C24 25.6569 22.6569 27 21 27C19.3431 27 18 25.6569 18 24Z" />
</svg>
