<svg viewBox="0 0 32 32" fill="none" xmlns="http://www.w3.org/2000/svg">
    <path d="M21.0001 16C19.7126 16 18.4751 15.425 17.5001 14.3875C16.5564 13.375 15.9751 12.0187 15.8751 10.575C15.7689 9.0375 16.2376 7.61875 17.1939 6.5875C18.1501 5.5625 19.5001 5 21.0001 5C22.4876 5 23.8376 5.56875 24.7939 6.59375C25.7626 7.63125 26.2314 9.04375 26.1189 10.5688C26.0126 12.0125 25.4376 13.3688 24.4939 14.3813C23.5251 15.425 22.2876 16 21.0001 16ZM21.0001 7C20.0626 7 19.2314 7.3375 18.6626 7.95C18.0751 8.58125 17.8064 9.4375 17.8751 10.4312C17.9439 11.4187 18.3314 12.3437 18.9689 13.025C19.5564 13.6562 20.2814 14 21.0001 14C21.7251 14 22.4439 13.65 23.0314 13.025C23.6689 12.3437 24.0564 11.425 24.1251 10.4312C24.1939 9.46875 23.9126 8.5875 23.3251 7.9625C22.7564 7.3375 21.9251 7 21.0001 7Z" />
    <path d="M29.238 26.9999H12.763C12.2193 26.9999 11.7193 26.7562 11.388 26.3312C11.0443 25.8874 10.9193 25.2874 11.0568 24.7187C11.5818 22.6062 12.888 20.8562 14.8255 19.6499C16.5443 18.5812 18.738 17.9937 20.9943 17.9937C23.2943 17.9937 25.4318 18.5562 27.163 19.6249C29.1068 20.8187 30.413 22.5812 30.938 24.7187C31.0755 25.2874 30.9505 25.8874 30.6068 26.3312C30.2818 26.7562 29.7818 26.9999 29.238 26.9999ZM13.0568 24.9999H28.9505C27.9193 21.3124 24.0505 19.9999 21.0005 19.9999C17.963 19.9999 14.1005 21.3124 13.0568 24.9999Z" />
    <path d="M9.18725 16.2501C6.98725 16.2501 5.056 14.2063 4.87475 11.6938C4.781 10.4063 5.181 9.21885 5.9935 8.34385C6.79975 7.48135 7.931 7.00635 9.181 7.00635C10.4247 7.00635 11.556 7.4876 12.3623 8.35635C13.181 9.2376 13.581 10.4251 13.4873 11.7001C13.3185 14.2063 11.381 16.2501 9.18725 16.2501ZM9.18725 9.0001C8.49975 9.0001 7.88725 9.2501 7.46225 9.70635C7.02475 10.1751 6.8185 10.8126 6.87475 11.5501C6.981 13.0126 8.03725 14.2501 9.18725 14.2501C10.3372 14.2501 11.3997 13.0126 11.4998 11.5501C11.5497 10.8313 11.3372 10.1813 10.906 9.7126C10.481 9.2501 9.8685 9.0001 9.18725 9.0001Z" />
    <path d="M9.62505 25.0001H2.6063C2.11255 25.0001 1.6563 24.7751 1.35005 24.3938C1.03755 23.9938 0.925048 23.4438 1.05005 22.9313C1.4813 21.1876 2.5563 19.7501 4.15005 18.7626C5.5563 17.8938 7.3438 17.4126 9.1813 17.4126C10.7563 17.4126 12.1 17.6751 13.2875 18.2188C13.7875 18.4501 14.0125 19.0438 13.7813 19.5438C13.55 20.0438 12.9563 20.2688 12.4563 20.0376C11.5375 19.6188 10.4688 19.4126 9.18755 19.4126C6.9063 19.4126 4.02505 20.3626 3.11255 23.0063H9.62505C10.175 23.0063 10.625 23.4563 10.625 24.0063C10.625 24.5563 10.175 25.0001 9.62505 25.0001Z" />
</svg>
