<svg viewBox="0 0 32 32" fill="none" xmlns="http://www.w3.org/2000/svg">
    <path d="M18.0004 16C14.6942 16 11.7817 12.8937 11.5004 9.075C11.3567 7.1375 11.9567 5.34375 13.1879 4.025C14.4004 2.71875 16.1129 2 18.0004 2C19.8754 2 21.5817 2.725 22.8004 4.0375C24.0379 5.36875 24.6379 7.15625 24.4942 9.075C24.2129 12.8937 21.3004 16 18.0004 16ZM18.0004 4C16.6754 4 15.4817 4.49375 14.6504 5.3875C13.8067 6.29375 13.3942 7.55625 13.4942 8.93125C13.6942 11.6812 15.7567 14.0063 17.9942 14.0063C20.2317 14.0063 22.2942 11.6812 22.4942 8.93125C22.5942 7.575 22.1817 6.31875 21.3254 5.4C20.5004 4.49375 19.3129 4 18.0004 4Z" />
    <path d="M28.9998 30H6.99982C6.39982 30 5.85607 29.75 5.48107 29.3C5.07482 28.8125 4.91232 28.15 5.03732 27.4813C5.56232 24.5563 7.21232 22.1 9.79982 20.375C12.0998 18.8438 15.0123 18 17.9998 18C20.9873 18 23.8998 18.8438 26.1998 20.375C28.7873 22.1 30.4373 24.5563 30.9623 27.4813C31.0811 28.15 30.9186 28.8125 30.5123 29.3C30.1373 29.75 29.5998 30 28.9998 30ZM7.01232 28H28.9873C28.9998 27.9688 29.0061 27.9187 28.9936 27.8375C28.0248 22.4562 22.6123 20 17.9998 20C13.3873 20 7.97482 22.4562 7.00607 27.8375C6.99357 27.9187 6.99982 27.9688 7.01232 28Z" />
    <path d="M5.5 19C4.95 19 4.5 18.55 4.5 18V11C4.5 10.45 4.95 10 5.5 10C6.05 10 6.5 10.45 6.5 11V18C6.5 18.55 6.05 19 5.5 19Z" />
    <path d="M9 15.5H2C1.45 15.5 1 15.05 1 14.5C1 13.95 1.45 13.5 2 13.5H9C9.55 13.5 10 13.95 10 14.5C10 15.05 9.55 15.5 9 15.5Z" />
</svg>
