<svg viewBox="0 0 32 32" fill="none" xmlns="http://www.w3.org/2000/svg">
    <path d="M16.0004 16C12.6942 16 9.78168 12.8937 9.50043 9.075C9.35668 7.1375 9.95668 5.34375 11.1879 4.025C12.4004 2.71875 14.1129 2 16.0004 2C17.8754 2 19.5817 2.725 20.8004 4.0375C22.0379 5.36875 22.6379 7.15625 22.4942 9.075C22.2129 12.8937 19.3004 16 16.0004 16ZM16.0004 4C14.6754 4 13.4817 4.49375 12.6504 5.3875C11.8067 6.29375 11.3942 7.55625 11.4942 8.93125C11.6942 11.6812 13.7567 14.0063 15.9942 14.0063C18.2317 14.0063 20.2942 11.6812 20.4942 8.93125C20.5942 7.575 20.1817 6.31875 19.3254 5.4C18.5004 4.49375 17.3129 4 16.0004 4Z" />
    <path d="M27.0005 30.0001H5.00046C4.40046 30.0001 3.86296 29.7501 3.48796 29.3063C3.08171 28.8188 2.91921 28.1563 3.03796 27.4876C3.56296 24.5626 5.21297 22.1001 7.80047 20.3813C10.1005 18.8501 13.013 18.0063 16.0005 18.0063C18.988 18.0063 21.9005 18.8501 24.2005 20.3813C26.788 22.1063 28.438 24.5626 28.963 27.4876C29.0817 28.1563 28.9192 28.8188 28.513 29.3063C28.138 29.7501 27.6005 30.0001 27.0005 30.0001ZM5.01296 28.0001H26.988C27.0005 27.9688 27.0067 27.9188 26.9942 27.8376C26.0255 22.4563 20.613 20.0001 16.0005 20.0001C11.388 20.0001 5.97546 22.4563 5.00671 27.8376C4.99421 27.9188 5.00046 27.9688 5.01296 28.0001Z" />
</svg>
