<svg viewBox="0 0 32 32" fill="none" xmlns="http://www.w3.org/2000/svg">
    <path d="M16 20C18.2091 20 20 18.2091 20 16C20 13.7909 18.2091 12 16 12C13.7909 12 12 13.7909 12 16C12 18.2091 13.7909 20 16 20Z" stroke="currentColor" stroke-width="2.5"/>
    <path d="M18.353 2.86917C17.8636 2.6665 17.2423 2.6665 15.9996 2.6665C14.757 2.6665 14.1356 2.6665 13.6463 2.86917C13.3225 3.00319 13.0284 3.1997 12.7806 3.44747C12.5328 3.69524 12.3363 3.98941 12.2023 4.31317C12.0796 4.6105 12.0303 4.9585 12.0116 5.46384C12.0033 5.82916 11.9023 6.18637 11.718 6.50193C11.5338 6.81749 11.2724 7.08104 10.9583 7.26784C10.6395 7.44656 10.2805 7.54131 9.915 7.54317C9.54952 7.54504 9.18957 7.45396 8.86896 7.2785C8.42096 7.04117 8.09696 6.9105 7.77562 6.86784C7.07472 6.77566 6.36589 6.96558 5.80496 7.39584C5.38629 7.71984 5.07429 8.25717 4.45296 9.33317C3.83162 10.4092 3.51962 10.9465 3.45162 11.4732C3.4058 11.8204 3.42885 12.1733 3.51945 12.5117C3.61004 12.8501 3.76641 13.1673 3.97962 13.4452C4.17696 13.7012 4.45296 13.9158 4.88096 14.1852C5.51162 14.5812 5.91696 15.2558 5.91696 15.9998C5.91696 16.7438 5.51162 17.4185 4.88096 17.8132C4.45296 18.0838 4.17562 18.2985 3.97962 18.5545C3.76641 18.8324 3.61004 19.1496 3.51945 19.488C3.42885 19.8263 3.4058 20.1792 3.45162 20.5265C3.52096 21.0518 3.83162 21.5905 4.45162 22.6665C5.07429 23.7425 5.38496 24.2798 5.80496 24.6038C6.08287 24.817 6.40007 24.9734 6.73843 25.064C7.07679 25.1546 7.42969 25.1777 7.77696 25.1318C8.09696 25.0892 8.42096 24.9585 8.86896 24.7212C9.18957 24.5457 9.54952 24.4546 9.915 24.4565C10.2805 24.4584 10.6395 24.5531 10.9583 24.7318C11.6023 25.1052 11.985 25.7918 12.0116 26.5358C12.0303 27.0425 12.0783 27.3892 12.2023 27.6865C12.3363 28.0103 12.5328 28.3044 12.7806 28.5522C13.0284 28.8 13.3225 28.9965 13.6463 29.1305C14.1356 29.3332 14.757 29.3332 15.9996 29.3332C17.2423 29.3332 17.8636 29.3332 18.353 29.1305C18.6767 28.9965 18.9709 28.8 19.2187 28.5522C19.4664 28.3044 19.6629 28.0103 19.797 27.6865C19.9196 27.3892 19.969 27.0425 19.9876 26.5358C20.0143 25.7918 20.397 25.1038 21.041 24.7318C21.3598 24.5531 21.7188 24.4584 22.0842 24.4565C22.4497 24.4546 22.8097 24.5457 23.1303 24.7212C23.5783 24.9585 23.9023 25.0892 24.2223 25.1318C24.5696 25.1777 24.9225 25.1546 25.2608 25.064C25.5992 24.9734 25.9164 24.817 26.1943 24.6038C26.6143 24.2812 26.925 23.7425 27.5463 22.6665C28.1676 21.5905 28.4796 21.0532 28.5476 20.5265C28.5934 20.1792 28.5704 19.8263 28.4798 19.488C28.3892 19.1496 28.2328 18.8324 28.0196 18.5545C27.8223 18.2985 27.5463 18.0838 27.1183 17.8145C26.8059 17.6247 26.547 17.3585 26.3658 17.0411C26.1845 16.7236 26.087 16.3653 26.0823 15.9998C26.0823 15.2558 26.4876 14.5812 27.1183 14.1865C27.5463 13.9158 27.8236 13.7012 28.0196 13.4452C28.2328 13.1673 28.3892 12.8501 28.4798 12.5117C28.5704 12.1733 28.5934 11.8204 28.5476 11.4732C28.4783 10.9478 28.1676 10.4092 27.5476 9.33317C26.925 8.25717 26.6143 7.71984 26.1943 7.39584C25.9164 7.18262 25.5992 7.02625 25.2608 6.93566C24.9225 6.84506 24.5696 6.82202 24.2223 6.86784C23.9023 6.9105 23.5783 7.04117 23.129 7.2785C22.8085 7.45372 22.4488 7.54467 22.0836 7.5428C21.7184 7.54094 21.3596 7.44632 21.041 7.26784C20.7269 7.08104 20.4655 6.81749 20.2812 6.50193C20.097 6.18637 19.9959 5.82916 19.9876 5.46384C19.969 4.95717 19.921 4.6105 19.797 4.31317C19.6629 3.98941 19.4664 3.69524 19.2187 3.44747C18.9709 3.1997 18.6767 3.00319 18.353 2.86917Z" stroke="currentColor" stroke-width="2.5"/>
</svg>
