<svg viewBox="0 0 32 32" fill="none" xmlns="http://www.w3.org/2000/svg">
    <path fill-rule="evenodd" clip-rule="evenodd" d="M5 21V29H6V21H5ZM3 20.5C3 19.6716 3.67157 19 4.5 19H6.5C7.32843 19 8 19.6716 8 20.5V29.5C8 30.3284 7.32843 31 6.5 31H4.5C3.67157 31 3 30.3284 3 29.5V20.5Z" />
    <path fill-rule="evenodd" clip-rule="evenodd" d="M19 15V29H20V15H19ZM17 14.5C17 13.6716 17.6716 13 18.5 13H20.5C21.3284 13 22 13.6716 22 14.5V29.5C22 30.3284 21.3284 31 20.5 31H18.5C17.6716 31 17 30.3284 17 29.5V14.5Z" />
    <path fill-rule="evenodd" clip-rule="evenodd" d="M26 8V29H27V8H26ZM24 7.5C24 6.67157 24.6716 6 25.5 6H27.5C28.3284 6 29 6.67157 29 7.5V29.5C29 30.3284 28.3284 31 27.5 31H25.5C24.6716 31 24 30.3284 24 29.5V7.5Z" />
    <path fill-rule="evenodd" clip-rule="evenodd" d="M12 3V29H13V3H12ZM10 2.5C10 1.67157 10.6716 1 11.5 1H13.5C14.3284 1 15 1.67157 15 2.5V29.5C15 30.3284 14.3284 31 13.5 31H11.5C10.6716 31 10 30.3284 10 29.5V2.5Z" />
</svg>
