<svg viewBox="0 0 32 32" fill="none" xmlns="http://www.w3.org/2000/svg">
    <path d="M16 1.6665C16.2652 1.6665 16.5196 1.77186 16.7071 1.9594C16.8946 2.14693 17 2.40129 17 2.6665V3.99984C17 4.26505 16.8946 4.51941 16.7071 4.70694C16.5196 4.89448 16.2652 4.99984 16 4.99984C15.7348 4.99984 15.4804 4.89448 15.2929 4.70694C15.1054 4.51941 15 4.26505 15 3.99984V2.6665C15 2.40129 15.1054 2.14693 15.2929 1.9594C15.4804 1.77186 15.7348 1.6665 16 1.6665Z" />
    <path fill-rule="evenodd" clip-rule="evenodd" d="M8.33301 16.0002C8.33301 13.9668 9.14074 12.0168 10.5785 10.579C12.0163 9.14123 13.9663 8.3335 15.9997 8.3335C18.033 8.3335 19.983 9.14123 21.4208 10.579C22.8586 12.0168 23.6663 13.9668 23.6663 16.0002C23.6663 18.0335 22.8586 19.9835 21.4208 21.4213C19.983 22.8591 18.033 23.6668 15.9997 23.6668C13.9663 23.6668 12.0163 22.8591 10.5785 21.4213C9.14074 19.9835 8.33301 18.0335 8.33301 16.0002ZM15.9997 10.3335C15.2555 10.3335 14.5186 10.4801 13.8311 10.7648C13.1436 11.0496 12.5189 11.467 11.9927 11.9932C11.4665 12.5194 11.0491 13.1441 10.7644 13.8316C10.4796 14.5191 10.333 15.256 10.333 16.0002C10.333 16.7443 10.4796 17.4812 10.7644 18.1687C11.0491 18.8562 11.4665 19.4809 11.9927 20.0071C12.5189 20.5333 13.1436 20.9507 13.8311 21.2355C14.5186 21.5203 15.2555 21.6668 15.9997 21.6668C17.5026 21.6668 18.9439 21.0698 20.0066 20.0071C21.0693 18.9444 21.6663 17.5031 21.6663 16.0002C21.6663 14.4973 21.0693 13.0559 20.0066 11.9932C18.9439 10.9305 17.5026 10.3335 15.9997 10.3335Z" />
    <path d="M7.28033 5.86549C7.09181 5.68324 6.83925 5.58233 6.57706 5.58448C6.31486 5.58664 6.06399 5.69169 5.8785 5.87701C5.693 6.06233 5.58771 6.31309 5.58531 6.57529C5.58291 6.83749 5.68359 7.09014 5.86566 7.27883L6.80833 8.22149C6.89987 8.31974 7.01028 8.39854 7.13294 8.4532C7.25561 8.50786 7.38802 8.53724 7.5223 8.53961C7.65657 8.54198 7.78994 8.51728 7.91445 8.46699C8.03897 8.41669 8.15208 8.34183 8.24704 8.24688C8.342 8.15192 8.41686 8.03881 8.46715 7.91429C8.51745 7.78977 8.54215 7.6564 8.53978 7.52213C8.53741 7.38786 8.50802 7.25544 8.45337 7.13277C8.39871 7.01011 8.31991 6.89971 8.22166 6.80816L7.28033 5.86549ZM30.3337 16.0002C30.3337 16.2654 30.2283 16.5197 30.0408 16.7073C29.8532 16.8948 29.5989 17.0002 29.3337 17.0002H28.0003C27.7351 17.0002 27.4808 16.8948 27.2932 16.7073C27.1057 16.5197 27.0003 16.2654 27.0003 16.0002C27.0003 15.7349 27.1057 15.4806 27.2932 15.2931C27.4808 15.1055 27.7351 15.0002 28.0003 15.0002H29.3337C29.5989 15.0002 29.8532 15.1055 30.0408 15.2931C30.2283 15.4806 30.3337 15.7349 30.3337 16.0002ZM26.135 7.28016C26.2305 7.18796 26.3068 7.07765 26.3592 6.95567C26.4117 6.83369 26.4394 6.70248 26.4406 6.5697C26.4418 6.43693 26.4165 6.30524 26.3663 6.18232C26.3161 6.0594 26.2419 5.94771 26.1481 5.85377C26.0542 5.75984 25.9426 5.68553 25.8197 5.63519C25.6968 5.58485 25.5652 5.55949 25.4324 5.56058C25.2996 5.56167 25.1684 5.5892 25.0464 5.64155C24.9243 5.6939 24.8139 5.77003 24.7217 5.86549L23.779 6.80816C23.6807 6.89971 23.6019 7.01011 23.5473 7.13277C23.4926 7.25544 23.4632 7.38786 23.4609 7.52213C23.4585 7.6564 23.4832 7.78977 23.5335 7.91429C23.5838 8.03881 23.6586 8.15192 23.7536 8.24688C23.8486 8.34183 23.9617 8.41669 24.0862 8.46699C24.2107 8.51728 24.3441 8.54198 24.4784 8.53961C24.6126 8.53724 24.745 8.50786 24.8677 8.4532C24.9904 8.39854 25.1008 8.31974 25.1923 8.22149L26.135 7.28016ZM16.0003 27.0002C16.2655 27.0002 16.5199 27.1055 16.7074 27.293C16.895 27.4806 17.0003 27.7349 17.0003 28.0002V29.3335C17.0003 29.5987 16.895 29.8531 16.7074 30.0406C16.5199 30.2281 16.2655 30.3335 16.0003 30.3335C15.7351 30.3335 15.4808 30.2281 15.2932 30.0406C15.1057 29.8531 15.0003 29.5987 15.0003 29.3335V28.0002C15.0003 27.7349 15.1057 27.4806 15.2932 27.293C15.4808 27.1055 15.7351 27.0002 16.0003 27.0002ZM25.1923 23.7788C25.1008 23.6806 24.9904 23.6018 24.8677 23.5471C24.745 23.4925 24.6126 23.4631 24.4784 23.4607C24.3441 23.4583 24.2107 23.483 24.0862 23.5333C23.9617 23.5836 23.8486 23.6585 23.7536 23.7534C23.6586 23.8484 23.5838 23.9615 23.5335 24.086C23.4832 24.2105 23.4585 24.3439 23.4609 24.4782C23.4632 24.6125 23.4926 24.7449 23.5473 24.8675C23.6019 24.9902 23.6807 25.1006 23.779 25.1922L24.7217 26.1348C24.8132 26.2331 24.9236 26.3119 25.0463 26.3665C25.1689 26.4212 25.3014 26.4506 25.4356 26.4529C25.5699 26.4553 25.7033 26.4306 25.8278 26.3803C25.9523 26.33 26.0654 26.2552 26.1604 26.1602C26.2553 26.0653 26.3302 25.9521 26.3805 25.8276C26.4308 25.7031 26.4555 25.5697 26.4531 25.4355C26.4507 25.3012 26.4214 25.1688 26.3667 25.0461C26.312 24.9234 26.2332 24.813 26.135 24.7215L25.1923 23.7788ZM5.00033 16.0002C5.00033 16.2654 4.89497 16.5197 4.70743 16.7073C4.5199 16.8948 4.26554 17.0002 4.00033 17.0002H2.66699C2.40178 17.0002 2.14742 16.8948 1.95989 16.7073C1.77235 16.5197 1.66699 16.2654 1.66699 16.0002C1.66699 15.7349 1.77235 15.4806 1.95989 15.2931C2.14742 15.1055 2.40178 15.0002 2.66699 15.0002H4.00033C4.26554 15.0002 4.5199 15.1055 4.70743 15.2931C4.89497 15.4806 5.00033 15.7349 5.00033 16.0002ZM8.22166 25.1922C8.3983 25.0026 8.49446 24.7519 8.48989 24.4928C8.48532 24.2337 8.38037 23.9865 8.19715 23.8033C8.01394 23.6201 7.76676 23.5152 7.50769 23.5106C7.24862 23.506 6.99789 23.6022 6.80833 23.7788L5.86566 24.7215C5.68902 24.9111 5.59285 25.1618 5.59743 25.4209C5.602 25.6799 5.70695 25.9271 5.89016 26.1103C6.07338 26.2935 6.32056 26.3985 6.57963 26.4031C6.8387 26.4076 7.08943 26.3115 7.27899 26.1348L8.22166 25.1922Z" />
</svg>
