<svg viewBox="0 0 32 32" fill="none" xmlns="http://www.w3.org/2000/svg">
    <path fill-rule="evenodd" clip-rule="evenodd" d="M6 6C4.89543 6 4 6.89543 4 8V26C4 27.1046 4.89543 28 6 28H26C27.1046 28 28 27.1046 28 26V8C28 6.89543 27.1046 6 26 6H6ZM2 8C2 5.79086 3.79086 4 6 4H26C28.2091 4 30 5.79086 30 8V26C30 28.2091 28.2091 30 26 30H6C3.79086 30 2 28.2091 2 26V8Z" />
    <path fill-rule="evenodd" clip-rule="evenodd" d="M8 2C8.55228 2 9 2.44772 9 3V5C9 5.55228 8.55228 6 8 6C7.44772 6 7 5.55228 7 5V3C7 2.44772 7.44772 2 8 2Z" />
    <path fill-rule="evenodd" clip-rule="evenodd" d="M24 2C24.5523 2 25 2.44772 25 3V5C25 5.55228 24.5523 6 24 6C23.4477 6 23 5.55228 23 5V3C23 2.44772 23.4477 2 24 2Z" />
    <path fill-rule="evenodd" clip-rule="evenodd" d="M8 15V19H12V15H8ZM6 14.8125C6 13.8115 6.81148 13 7.8125 13H12.1875C13.1885 13 14 13.8115 14 14.8125V19.1875C14 20.1885 13.1885 21 12.1875 21H7.8125C6.81148 21 6 20.1885 6 19.1875V14.8125Z" />
    <path fill-rule="evenodd" clip-rule="evenodd" d="M2 10C2 9.44772 2.44772 9 3 9H29C29.5523 9 30 9.44772 30 10C30 10.5523 29.5523 11 29 11H3C2.44772 11 2 10.5523 2 10Z" />
</svg>
