<!--<svg viewBox="122.04 141.936 23.443 27.448" width="23.443" height="27.448" xmlns="http://www.w3.org/2000/svg">-->
<!--    <path d="M 143.041 169.384 C 142.651 169.384 142.357 169.091 142.357 168.701 L 140.502 149.751 L 138.939 163.133 C 138.939 163.524 138.646 163.719 138.255 163.817 C 137.864 163.817 137.571 163.621 137.473 163.231 L 136.399 158.542 L 134.348 158.542 C 134.055 158.542 133.762 158.347 133.664 158.053 L 132.687 155.025 L 131.906 157.956 C 131.808 158.249 131.515 158.542 131.222 158.542 L 122.822 158.542 C 122.431 158.542 122.04 158.249 122.04 157.76 C 122.04 157.272 122.333 156.979 122.822 156.979 L 130.636 156.979 L 131.906 152.095 C 132.003 151.802 132.296 151.509 132.589 151.509 C 132.883 151.509 133.176 151.704 133.273 151.997 L 134.836 156.881 L 136.887 156.881 C 137.18 156.881 137.571 157.077 137.571 157.467 L 137.864 158.64 L 139.72 142.62 C 139.72 142.229 140.111 141.936 140.404 141.936 C 140.795 141.936 141.088 142.229 141.088 142.62 L 143.237 164.012 L 144.799 157.467 C 144.897 157.174 145.19 156.881 145.483 156.881 L 143.725 168.701 C 143.725 169.091 143.432 169.384 143.041 169.384 Z"-->
<!--          fill="#438C68"/>-->
<!--</svg>-->
<svg width="32" height="32" viewBox="0 0 32 32" fill="none" xmlns="http://www.w3.org/2000/svg">
<defs>
    <clipPath id="clip0_1642_48503">
        <rect width="32" height="32" fill="white"/>
    </clipPath>
</defs>
<g clip-path="url(#clip0_1642_48503)">
    <rect width="32" height="32" fill="transparent"/>
    <path d="M0.5 16.9995H-0.537037V19.0736H0.5V16.9995ZM30.9841 18.5549L32.021 18.5708L32.0528 16.497L31.0159 16.4811L30.9841 18.5549ZM0.5 19.0736H5.62963V16.9995H0.5V19.0736ZM5.62963 19.0736C6.18295 19.0736 6.48721 18.6845 6.55555 18.5947C6.66557 18.4502 6.7406 18.2938 6.78981 18.1796C6.89318 17.9397 6.9855 17.6389 7.06775 17.3367C7.23529 16.7212 7.41007 15.9131 7.57648 15.145C7.7471 14.3575 7.90937 13.6101 8.05942 13.0589C8.13596 12.7778 8.19758 12.5925 8.24085 12.4921C8.26497 12.4361 8.26144 12.4589 8.22079 12.5123C8.19955 12.5402 8.1424 12.611 8.04212 12.6813C7.93764 12.7545 7.74994 12.8513 7.4963 12.8513V10.7773C6.94298 10.7773 6.63871 11.1663 6.57037 11.2561C6.46035 11.4007 6.38532 11.5571 6.33612 11.6712C6.23275 11.9111 6.14043 12.212 6.05817 12.5141C5.89063 13.1296 5.71586 13.9377 5.54944 14.7058C5.37882 15.4933 5.21656 16.2407 5.06651 16.7919C4.98997 17.0731 4.92835 17.2583 4.88508 17.3587C4.86096 17.4147 4.86449 17.392 4.90514 17.3386C4.92637 17.3107 4.98353 17.2398 5.08381 17.1695C5.18829 17.0963 5.37598 16.9995 5.62963 16.9995V19.0736ZM7.4963 12.8513C7.00269 12.8513 6.76518 12.505 6.76401 12.5034C6.72251 12.4477 6.71855 12.423 6.74158 12.4786C6.78269 12.5778 6.841 12.7622 6.91285 13.0433C7.05362 13.5941 7.20336 14.3412 7.36088 15.1288C7.51447 15.8968 7.67584 16.7052 7.83322 17.3211C7.91045 17.6233 7.99797 17.925 8.09783 18.1661C8.14529 18.2806 8.21851 18.439 8.32787 18.5859C8.39689 18.6786 8.70083 19.0736 9.25926 19.0736V16.9995C9.75287 16.9995 9.99038 17.3458 9.99155 17.3474C10.033 17.4031 10.037 17.4278 10.014 17.3723C9.97287 17.273 9.91455 17.0887 9.84271 16.8075C9.70194 16.2567 9.55219 15.5096 9.39468 14.722C9.24108 13.9541 9.07972 13.1456 8.92234 12.5298C8.84511 12.2276 8.75759 11.9258 8.65773 11.6848C8.61026 11.5702 8.53704 11.4118 8.42769 11.2649C8.35867 11.1722 8.05472 10.7773 7.4963 10.7773V12.8513ZM9.25926 19.0736H10.8148V16.9995H9.25926V19.0736ZM10.8148 19.0736C10.4126 19.0736 10.1897 18.8344 10.1651 18.8084C10.1143 18.7548 10.1029 18.7244 10.1243 18.7631C10.1629 18.8328 10.2258 18.9748 10.3104 19.2068C10.4756 19.6603 10.6604 20.2786 10.858 20.9414C11.0493 21.5828 11.2534 22.2688 11.4446 22.7935C11.5383 23.0507 11.6455 23.3162 11.7649 23.5318C11.8225 23.6358 11.9099 23.7783 12.0331 23.9083C12.1301 24.0107 12.4219 24.2907 12.8889 24.2907V22.2166C13.2911 22.2166 13.514 22.4557 13.5386 22.4818C13.5894 22.5353 13.6008 22.5657 13.5794 22.5271C13.5408 22.4574 13.4779 22.3153 13.3933 22.0834C13.2281 21.6299 13.0433 21.0116 12.8457 20.3488C12.6544 19.7073 12.4503 19.0213 12.2591 18.4966C12.1654 18.2395 12.0582 17.9739 11.9388 17.7583C11.8812 17.6544 11.7938 17.5118 11.6706 17.3819C11.5736 17.2794 11.2818 16.9995 10.8148 16.9995V19.0736ZM12.8889 24.2907C13.3384 24.2907 13.6073 24.0208 13.6926 23.9238C13.7941 23.8084 13.8518 23.6941 13.8788 23.6366C13.937 23.5128 13.9747 23.3842 13.9991 23.2924C14.0518 23.0939 14.101 22.8361 14.1477 22.5514C14.2429 21.9718 14.3473 21.1601 14.4573 20.2078C14.6777 18.2984 14.9277 15.7566 15.1765 13.2282C15.4259 10.6932 15.674 8.17144 15.892 6.28335C16.0013 5.33684 16.1011 4.5662 16.1878 4.03818C16.232 3.7691 16.2682 3.59182 16.2943 3.49366C16.3093 3.43717 16.3093 3.45209 16.2871 3.49931C16.2781 3.51853 16.238 3.60381 16.1535 3.69979C16.0851 3.77746 15.8326 4.03746 15.399 4.03704L15.401 1.96296C14.9512 1.96252 14.682 2.23239 14.5965 2.32952C14.4949 2.44495 14.4372 2.55928 14.4102 2.6168C14.3519 2.74064 14.3142 2.86926 14.2898 2.96109C14.237 3.15956 14.1879 3.41738 14.1412 3.70207C14.046 4.28161 13.9415 5.09323 13.8316 6.04548C13.6112 7.95489 13.3611 10.4966 13.1124 13.0251C12.863 15.5601 12.6149 18.0818 12.3969 19.97C12.2876 20.9165 12.1878 21.6872 12.1011 22.2153C12.0569 22.4844 12.0207 22.6617 11.9946 22.7599C11.9796 22.8164 11.9795 22.8016 12.0017 22.7544C12.0107 22.7352 12.0508 22.65 12.1351 22.5541C12.2033 22.4766 12.4555 22.2166 12.8889 22.2166V24.2907ZM15.399 4.03704C14.847 4.0365 14.5842 3.62655 14.569 3.60428C14.507 3.51353 14.4812 3.44029 14.4797 3.43628C14.4718 3.4149 14.4792 3.43068 14.4972 3.51459C14.5302 3.66893 14.5718 3.92172 14.6203 4.27742C14.7162 4.98063 14.8276 5.99745 14.9492 7.23276C15.1921 9.6993 15.4711 12.9872 15.7443 16.2687C16.0172 19.5457 16.2843 22.8167 16.5026 25.236C16.6116 26.4443 16.7093 27.4506 16.7902 28.1429C16.8301 28.4844 16.8684 28.7712 16.9047 28.9724C16.9202 29.0583 16.9456 29.1897 16.9874 29.3095C16.9994 29.3439 17.0195 29.3974 17.0501 29.458C17.0738 29.505 17.1391 29.6289 17.2646 29.7499C17.3922 29.8729 17.7266 30.1196 18.2008 30.0224C18.6151 29.9374 18.8177 29.6462 18.8737 29.5586L17.1263 28.4414C17.1774 28.3614 17.375 28.0745 17.7841 27.9906C18.253 27.8944 18.582 28.139 18.7041 28.2566C18.824 28.3723 18.8836 28.4876 18.9014 28.5229C18.9261 28.5718 18.9402 28.6105 18.9459 28.627C18.9627 28.6751 18.9605 28.6853 18.9458 28.604C18.9217 28.4707 18.8895 28.2384 18.8503 27.9022C18.7728 27.2391 18.6771 26.2561 18.5683 25.0497C18.3509 22.6397 18.0847 19.3804 17.8112 16.0966C17.5382 12.8173 17.2579 9.51407 17.0133 7.02953C16.8912 5.7893 16.7767 4.74061 16.6754 3.99717C16.6252 3.62954 16.5753 3.31372 16.5253 3.08025C16.5017 2.97027 16.4697 2.83735 16.4246 2.71574C16.4046 2.66162 16.3609 2.55038 16.2815 2.43415C16.2488 2.38641 15.9692 1.96352 15.401 1.96296L15.399 4.03704ZM18.8737 29.5586C18.9474 29.4433 18.9902 29.3287 19.0068 29.2838C19.0304 29.2198 19.0519 29.152 19.0711 29.0875C19.1097 28.9575 19.1516 28.797 19.1953 28.6184C19.2833 28.2588 19.3894 27.7815 19.5062 27.2337C19.7401 26.1361 20.0242 24.7202 20.3037 23.3234C20.5839 21.9224 20.8594 20.5412 21.0781 19.5008C21.1877 18.9793 21.2811 18.5534 21.3524 18.257C21.3887 18.1065 21.4156 18.0045 21.4335 17.945C21.4433 17.9125 21.4441 17.9136 21.4362 17.9331C21.4329 17.9412 21.418 17.9781 21.3902 18.0269C21.3863 18.0338 21.2885 18.223 21.0689 18.367L19.9311 16.633C19.7049 16.7814 19.5995 16.9802 19.5872 17.0018C19.5512 17.0652 19.527 17.122 19.5137 17.1547C19.4859 17.2236 19.4635 17.2938 19.447 17.3487C19.4124 17.4641 19.3747 17.6105 19.336 17.7716C19.2572 18.0986 19.1588 18.5488 19.0484 19.074C18.8271 20.1269 18.5491 21.5207 18.2699 22.9165C17.9899 24.3164 17.7084 25.7189 17.4777 26.8013C17.3621 27.3435 17.2611 27.7966 17.1807 28.1254C17.1402 28.2909 17.1075 28.4141 17.0829 28.4968C17.0705 28.5388 17.0632 28.5596 17.0611 28.5653C17.0519 28.5902 17.072 28.5262 17.1263 28.4414L18.8737 29.5586ZM21.0689 18.367C20.9157 18.4676 20.774 18.4984 20.7686 18.4998C20.7309 18.5092 20.7047 18.513 20.7005 18.5136C20.6901 18.5152 20.6966 18.5138 20.7305 18.5113C20.7943 18.5065 20.8975 18.5016 21.0435 18.4972C21.3318 18.4886 21.7407 18.4833 22.2356 18.4809C23.2228 18.4761 24.5231 18.4826 25.8211 18.4936C27.1182 18.5046 28.409 18.5199 29.3758 18.5325C29.8592 18.5388 30.2614 18.5444 30.5427 18.5484C30.6833 18.5505 30.7938 18.5521 30.869 18.5532C30.9066 18.5538 30.9354 18.5542 30.9548 18.5545C30.9645 18.5546 30.9718 18.5547 30.9768 18.5548C30.9792 18.5549 30.9811 18.5549 30.9823 18.5549C30.9829 18.5549 30.9834 18.5549 30.9837 18.5549C30.9838 18.5549 30.9839 18.5549 30.984 18.5549C30.9841 18.5549 30.9841 18.5549 31 17.518C31.0159 16.4811 31.0159 16.4811 31.0158 16.4811C31.0157 16.4811 31.0156 16.4811 31.0154 16.4811C31.0151 16.4811 31.0146 16.4811 31.014 16.4811C31.0127 16.481 31.0108 16.481 31.0083 16.481C31.0033 16.4809 30.9959 16.4808 30.9862 16.4806C30.9666 16.4803 30.9376 16.4799 30.8998 16.4794C30.8243 16.4782 30.7135 16.4766 30.5724 16.4746C30.2904 16.4705 29.8872 16.4649 29.4028 16.4586C28.4342 16.446 27.14 16.4306 25.8386 16.4196C24.5383 16.4086 23.2269 16.4019 22.2254 16.4068C21.7259 16.4093 21.2962 16.4146 20.9812 16.4241C20.8255 16.4288 20.6859 16.4348 20.5755 16.443C20.5224 16.447 20.459 16.4527 20.3972 16.4619C20.3674 16.4663 20.32 16.474 20.266 16.4875C20.2443 16.493 20.091 16.528 19.9311 16.633L21.0689 18.367Z" fill="#22AE67"/>
</g>
</svg>

